<svg width="454" height="377" viewBox="0 0 454 377" fill="none" xmlns="http://www.w3.org/2000/svg">
<g clip-path="url(#clip0_492_13166)">
<g filter="url(#filter0_f_492_13166)">
<path fill-rule="evenodd" clip-rule="evenodd" d="M181.943 374.282H171.243C161.381 374.282 159.052 372.653 159.052 372.653V374.22C159.052 374.259 159.067 374.296 159.099 374.32C159.46 374.591 162.044 376.237 171.739 376.237H180.895H181.943H272.057H275.281H282.261C291.956 376.237 294.54 374.591 294.901 374.32C294.933 374.296 294.948 374.259 294.948 374.22V372.653C294.948 372.653 292.619 374.282 282.757 374.282H272.057H181.943Z" fill="black" fill-opacity="0.35"/>
</g>
<g filter="url(#filter1_d_492_13166)">
<path fill-rule="evenodd" clip-rule="evenodd" d="M227 374.363C351.11 374.363 451.72 370.762 451.72 366.32C451.72 361.878 313.915 359.864 227 359.864C140.085 359.864 2.27977 361.878 2.27977 366.32C2.27977 370.762 102.89 374.363 227 374.363Z" fill="black" fill-opacity="0.01"/>
</g>
<g filter="url(#filter2_d_492_13166)">
<path fill-rule="evenodd" clip-rule="evenodd" d="M227.04 371.268C349.124 371.268 448.093 368.436 448.093 364.942C448.093 361.448 312.537 359.864 227.04 359.864C141.544 359.864 5.9875 361.448 5.9875 364.942C5.9875 368.436 104.956 371.268 227.04 371.268Z" fill="black" fill-opacity="0.01"/>
</g>
<path fill-rule="evenodd" clip-rule="evenodd" d="M182.055 312.214C182.055 312.214 179.681 353.464 175.893 359.041C173.858 362.036 160.147 370.382 158.65 371.638C157.153 372.895 158.542 373.215 158.542 373.215C158.542 373.215 162.973 374.768 167.96 375.093C171.118 375.298 174.426 375.065 176.81 375.084C184.041 375.143 198.502 375.097 198.502 375.097H255.497C255.497 375.097 269.958 375.143 277.189 375.084C279.573 375.065 282.882 375.298 286.039 375.093C291.027 374.768 295.461 373.295 295.461 373.295C295.461 373.295 296.846 372.895 295.349 371.638C293.852 370.382 280.141 362.036 278.106 359.041C274.318 353.464 271.944 312.214 271.944 312.214H259.446H196.792H182.055Z" fill="url(#paint0_linear_492_13166)"/>
<path fill-rule="evenodd" clip-rule="evenodd" d="M182.055 312.214C182.055 312.214 179.681 353.464 175.893 359.041C173.858 362.036 160.147 370.382 158.65 371.638C157.153 372.895 158.542 373.215 158.542 373.215C158.542 373.215 162.973 374.768 167.96 375.093C171.118 375.298 174.426 375.065 176.81 375.084C184.041 375.143 198.502 375.097 198.502 375.097H255.497C255.497 375.097 269.958 375.143 277.189 375.084C279.573 375.065 282.882 375.298 286.039 375.093C291.027 374.768 295.461 373.295 295.461 373.295C295.461 373.295 296.846 372.895 295.349 371.638C293.852 370.382 280.141 362.036 278.106 359.041C274.318 353.464 271.944 312.214 271.944 312.214H259.446H196.792H182.055Z" fill="url(#paint1_radial_492_13166)" style="mix-blend-mode:soft-light"/>
<path fill-rule="evenodd" clip-rule="evenodd" d="M182.055 312.214C182.055 312.214 179.681 353.464 175.893 359.041C173.858 362.036 160.147 370.382 158.65 371.638C157.153 372.895 158.542 373.215 158.542 373.215C158.542 373.215 162.973 374.768 167.96 375.093C171.118 375.298 174.426 375.065 176.81 375.084C184.041 375.143 198.502 375.097 198.502 375.097H255.497C255.497 375.097 269.958 375.143 277.189 375.084C279.573 375.065 282.882 375.298 286.039 375.093C291.027 374.768 295.461 373.295 295.461 373.295C295.461 373.295 296.846 372.895 295.349 371.638C293.852 370.382 280.141 362.036 278.106 359.041C274.318 353.464 271.944 312.214 271.944 312.214H259.446H196.792H182.055Z" fill="url(#paint2_radial_492_13166)" style="mix-blend-mode:soft-light"/>
<path fill-rule="evenodd" clip-rule="evenodd" d="M182.055 312.214C182.055 312.214 179.681 353.464 175.893 359.041C173.858 362.036 160.147 370.382 158.65 371.638C157.153 372.895 158.542 373.215 158.542 373.215C158.542 373.215 162.973 374.768 167.96 375.093C171.118 375.298 174.426 375.065 176.81 375.084C184.041 375.143 198.502 375.097 198.502 375.097H255.497C255.497 375.097 269.958 375.143 277.189 375.084C279.573 375.065 282.882 375.298 286.039 375.093C291.027 374.768 295.461 373.295 295.461 373.295C295.461 373.295 296.846 372.895 295.349 371.638C293.852 370.382 280.141 362.036 278.106 359.041C274.318 353.464 271.944 312.214 271.944 312.214H259.446H196.792H182.055Z" fill="url(#paint3_radial_492_13166)" style="mix-blend-mode:soft-light"/>
<path fill-rule="evenodd" clip-rule="evenodd" d="M182.055 312.214C182.055 312.214 179.681 353.464 175.893 359.041C173.858 362.036 160.147 370.382 158.65 371.638C157.153 372.895 158.542 373.215 158.542 373.215C158.542 373.215 162.973 374.768 167.96 375.093C171.118 375.298 174.426 375.065 176.81 375.084C184.041 375.143 198.502 375.097 198.502 375.097H255.497C255.497 375.097 269.958 375.143 277.189 375.084C279.573 375.065 282.882 375.298 286.039 375.093C291.027 374.768 295.461 373.295 295.461 373.295C295.461 373.295 296.846 372.895 295.349 371.638C293.852 370.382 280.141 362.036 278.106 359.041C274.318 353.464 271.944 312.214 271.944 312.214H259.446H196.792H182.055Z" fill="url(#paint4_radial_492_13166)" style="mix-blend-mode:soft-light"/>
<path fill-rule="evenodd" clip-rule="evenodd" d="M182.055 312.214C182.055 312.214 179.681 353.464 175.893 359.041C173.858 362.036 160.147 370.382 158.65 371.638C157.153 372.895 158.542 373.215 158.542 373.215C158.542 373.215 162.973 374.768 167.96 375.093C171.118 375.298 174.426 375.065 176.81 375.084C184.041 375.143 198.502 375.097 198.502 375.097H255.497C255.497 375.097 269.958 375.143 277.189 375.084C279.573 375.065 282.882 375.298 286.039 375.093C291.027 374.768 295.461 373.295 295.461 373.295C295.461 373.295 296.846 372.895 295.349 371.638C293.852 370.382 280.141 362.036 278.106 359.041C274.318 353.464 271.944 312.214 271.944 312.214H259.446H196.792H182.055Z" fill="url(#paint5_radial_492_13166)" fill-opacity="0.4" style="mix-blend-mode:luminosity"/>
<path fill-rule="evenodd" clip-rule="evenodd" d="M182.055 312.214C182.055 312.214 179.681 353.464 175.893 359.041C173.858 362.036 160.147 370.382 158.65 371.638C157.153 372.895 158.542 373.215 158.542 373.215C158.542 373.215 162.973 374.768 167.96 375.093C171.118 375.298 174.426 375.065 176.81 375.084C184.041 375.143 198.502 375.097 198.502 375.097H255.497C255.497 375.097 269.958 375.143 277.189 375.084C279.573 375.065 282.882 375.298 286.039 375.093C291.027 374.768 295.461 373.295 295.461 373.295C295.461 373.295 296.846 372.895 295.349 371.638C293.852 370.382 280.141 362.036 278.106 359.041C274.318 353.464 271.944 312.214 271.944 312.214H259.446H196.792H182.055Z" fill="url(#paint6_radial_492_13166)" fill-opacity="0.4" style="mix-blend-mode:luminosity"/>
<path fill-rule="evenodd" clip-rule="evenodd" d="M182.055 312.214C182.055 312.214 179.681 353.464 175.893 359.041C173.858 362.036 160.147 370.382 158.65 371.638C157.153 372.895 158.542 373.215 158.542 373.215C158.542 373.215 162.973 374.768 167.96 375.093C171.118 375.298 174.426 375.065 176.81 375.084C184.041 375.143 198.502 375.097 198.502 375.097H255.497C255.497 375.097 269.958 375.143 277.189 375.084C279.573 375.065 282.882 375.298 286.039 375.093C291.027 374.768 295.461 373.295 295.461 373.295C295.461 373.295 296.846 372.895 295.349 371.638C293.852 370.382 280.141 362.036 278.106 359.041C274.318 353.464 271.944 312.214 271.944 312.214H259.446H196.792H182.055Z" fill="url(#paint7_radial_492_13166)"/>
<path fill-rule="evenodd" clip-rule="evenodd" d="M182.055 312.214C182.055 312.214 179.681 353.464 175.893 359.041C173.858 362.036 160.147 370.382 158.65 371.638C157.153 372.895 158.542 373.215 158.542 373.215C158.542 373.215 162.973 374.768 167.96 375.093C171.118 375.298 174.426 375.065 176.81 375.084C184.041 375.143 198.502 375.097 198.502 375.097H255.497C255.497 375.097 269.958 375.143 277.189 375.084C279.573 375.065 282.882 375.298 286.039 375.093C291.027 374.768 295.461 373.295 295.461 373.295C295.461 373.295 296.846 372.895 295.349 371.638C293.852 370.382 280.141 362.036 278.106 359.041C274.318 353.464 271.944 312.214 271.944 312.214H259.446H196.792H182.055Z" fill="url(#paint8_radial_492_13166)"/>
<path fill-rule="evenodd" clip-rule="evenodd" d="M182.055 312.214C182.055 312.214 179.681 353.464 175.893 359.041C173.858 362.036 160.147 370.382 158.65 371.638C157.153 372.895 158.542 373.215 158.542 373.215C158.542 373.215 162.973 374.768 167.96 375.093C171.118 375.298 174.426 375.065 176.81 375.084C184.041 375.143 198.502 375.097 198.502 375.097H255.497C255.497 375.097 269.958 375.143 277.189 375.084C279.573 375.065 282.882 375.298 286.039 375.093C291.027 374.768 295.461 373.295 295.461 373.295C295.461 373.295 296.846 372.895 295.349 371.638C293.852 370.382 280.141 362.036 278.106 359.041C274.318 353.464 271.944 312.214 271.944 312.214H259.446H196.792H182.055Z" fill="url(#paint9_radial_492_13166)" fill-opacity="0.2"/>
<path fill-rule="evenodd" clip-rule="evenodd" d="M182.055 312.214C182.055 312.214 179.681 353.464 175.893 359.041C173.858 362.036 160.147 370.382 158.65 371.638C157.153 372.895 158.542 373.215 158.542 373.215C158.542 373.215 162.973 374.768 167.96 375.093C171.118 375.298 174.426 375.065 176.81 375.084C184.041 375.143 198.502 375.097 198.502 375.097H255.497C255.497 375.097 269.958 375.143 277.189 375.084C279.573 375.065 282.882 375.298 286.039 375.093C291.027 374.768 295.461 373.295 295.461 373.295C295.461 373.295 296.846 372.895 295.349 371.638C293.852 370.382 280.141 362.036 278.106 359.041C274.318 353.464 271.944 312.214 271.944 312.214H259.446H196.792H182.055Z" fill="url(#paint10_radial_492_13166)" fill-opacity="0.2"/>
<g filter="url(#filter3_d_492_13166)">
<path fill-rule="evenodd" clip-rule="evenodd" d="M283.73 374.381C293.692 374.381 295.978 372.583 295.978 372.583C296.015 372.558 296.044 372.574 296.044 372.618V373.179C296.044 373.356 295.93 373.587 295.778 373.684C295.778 373.684 293.904 375.504 283.228 375.504H274.346H180.753H170.772C160.096 375.504 158.222 373.684 158.222 373.684C158.07 373.587 157.956 373.356 157.956 373.179L157.956 372.618C157.956 372.574 157.985 372.558 158.022 372.583C158.022 372.583 160.308 374.381 170.27 374.381H180.753H274.346H283.73Z" fill="url(#paint11_linear_492_13166)"/>
</g>
<path d="M0 270.754H454V298.177C454 303.119 454 305.59 453.038 307.477C452.192 309.138 450.842 310.488 449.182 311.333C447.295 312.295 444.824 312.295 439.882 312.295H14.1179C9.17618 312.295 6.70531 312.295 4.81782 311.333C3.15754 310.488 1.80768 309.138 0.961725 307.477C0 305.59 0 303.119 0 298.177V270.754Z" fill="url(#paint12_linear_492_13166)"/>
<path fill-rule="evenodd" clip-rule="evenodd" d="M227.175 286.008C227.886 286.008 229.206 285.031 230.924 285.031C233.882 285.031 235.046 287.135 235.046 287.135C235.046 287.135 232.77 288.299 232.77 291.122C232.77 294.307 235.605 295.405 235.605 295.405C235.605 295.405 233.623 300.983 230.946 300.983C229.717 300.983 228.761 300.155 227.466 300.155C226.146 300.155 224.836 301.014 223.983 301.014C221.539 301.014 218.451 295.723 218.451 291.469C218.451 287.284 221.065 285.089 223.516 285.089C225.11 285.089 226.346 286.008 227.175 286.008Z" fill="black"/>
<path fill-rule="evenodd" clip-rule="evenodd" d="M227.916 281.801C229.298 279.979 231.22 279.97 231.22 279.97C231.22 279.97 231.506 281.684 230.133 283.334C228.666 285.097 226.999 284.808 226.999 284.808C226.999 284.808 226.686 283.422 227.916 281.801Z" fill="black"/>
<path d="M0 15.2564C0 9.91619 0 7.24606 1.03928 5.20636C1.95346 3.41218 3.41218 1.95346 5.20636 1.03928C7.24606 0 9.91619 0 15.2565 0H438.744C444.084 0 446.754 0 448.794 1.03928C450.588 1.95346 452.047 3.41218 452.961 5.20636C454 7.24606 454 9.91619 454 15.2565V270.754H0V15.2564Z" fill="#030303"/>
<g opacity="0.703683">
<path fill-rule="evenodd" clip-rule="evenodd" d="M226.634 9.53013C227.6 9.53013 228.384 8.74606 228.384 7.77887C228.384 6.81167 227.6 6.0276 226.634 6.0276C225.667 6.0276 224.883 6.81167 224.883 7.77887C224.883 8.74606 225.667 9.53013 226.634 9.53013Z" fill="url(#paint13_radial_492_13166)"/>
<g filter="url(#filter4_d_492_13166)">
<path fill-rule="evenodd" clip-rule="evenodd" d="M226.634 8.68469C227.134 8.68469 227.539 8.27914 227.539 7.77887C227.539 7.27859 227.134 6.87304 226.634 6.87304C226.134 6.87304 225.728 7.27859 225.728 7.77887C225.728 8.27914 226.134 8.68469 226.634 8.68469Z" fill="url(#paint14_radial_492_13166)"/>
</g>
<mask id="mask0_492_13166" style="mask-type:alpha" maskUnits="userSpaceOnUse" x="225" y="6" width="3" height="3">
<path fill-rule="evenodd" clip-rule="evenodd" d="M226.634 8.68469C227.134 8.68469 227.539 8.27914 227.539 7.77887C227.539 7.27859 227.134 6.87304 226.634 6.87304C226.134 6.87304 225.728 7.27859 225.728 7.77887C225.728 8.27914 226.134 8.68469 226.634 8.68469Z" fill="white"/>
</mask>
<g mask="url(#mask0_492_13166)">
<g filter="url(#filter5_f_492_13166)">
<path fill-rule="evenodd" clip-rule="evenodd" d="M227.479 7.47692C227.579 7.47692 227.66 7.39581 227.66 7.29576C227.66 7.1957 227.579 7.11459 227.479 7.11459C227.379 7.11459 227.298 7.1957 227.298 7.29576C227.298 7.39581 227.379 7.47692 227.479 7.47692Z" fill="#2F3046"/>
</g>
<g filter="url(#filter6_f_492_13166)">
<path fill-rule="evenodd" clip-rule="evenodd" d="M227.479 7.47692C227.579 7.47692 227.66 7.39581 227.66 7.29576C227.66 7.1957 227.579 7.11459 227.479 7.11459C227.379 7.11459 227.298 7.1957 227.298 7.29576C227.298 7.39581 227.379 7.47692 227.479 7.47692Z" fill="#21271B"/>
</g>
<g filter="url(#filter7_f_492_13166)">
<path fill-rule="evenodd" clip-rule="evenodd" d="M226.48 7.45421C226.684 7.34103 226.81 7.17833 226.762 7.09082C226.713 7.00331 226.508 7.02412 226.304 7.13731C226.1 7.25049 225.974 7.41319 226.023 7.5007C226.071 7.58821 226.276 7.56739 226.48 7.45421Z" fill="#323137"/>
</g>
<g filter="url(#filter8_f_492_13166)">
<path fill-rule="evenodd" clip-rule="evenodd" d="M226.871 8.18521C227.095 8.12086 227.225 7.88677 227.161 7.66235C227.096 7.43794 226.862 7.30818 226.638 7.37253C226.414 7.43688 226.284 7.67097 226.348 7.89539C226.412 8.11981 226.646 8.24956 226.871 8.18521Z" fill="url(#paint15_radial_492_13166)"/>
</g>
<g filter="url(#filter9_f_492_13166)">
<path fill-rule="evenodd" clip-rule="evenodd" d="M226.66 8.12013C226.727 8.12013 226.781 8.06606 226.781 7.99935C226.781 7.93265 226.727 7.87858 226.66 7.87858C226.594 7.87858 226.54 7.93265 226.54 7.99935C226.54 8.06606 226.594 8.12013 226.66 8.12013Z" fill="#505760"/>
</g>
</g>
</g>
<rect x="18.2382" y="19.3046" width="417.524" height="235.24" fill="#202020"/>
<g clip-path="url(#clip1_492_13166)">
<rect x="18.5638" y="19.6304" width="416.848" height="234.611" fill="white"/>
</g>
</g>
<g clip-path="url(#clip2_492_13166)">
<path d="M306.724 169.794C320.607 169.794 331.862 158.559 331.862 144.699C331.862 130.84 320.607 119.605 306.724 119.605C292.842 119.605 281.587 130.84 281.587 144.699C281.587 158.559 292.842 169.794 306.724 169.794Z" fill="#3A6986"/>
<path d="M306.724 159.5C314.918 159.5 321.549 152.88 321.549 144.699C321.549 136.519 314.918 129.899 306.724 129.899C298.53 129.899 291.899 136.519 291.899 144.699C291.899 152.88 298.53 159.5 306.724 159.5Z" fill="white"/>
<path d="M253.43 169.794C267.313 169.794 278.567 158.559 278.567 144.699C278.567 130.84 267.313 119.605 253.43 119.605C239.547 119.605 228.293 130.84 228.293 144.699C228.293 158.559 239.547 169.794 253.43 169.794Z" fill="#3A6986"/>
<path d="M253.429 159.5C261.623 159.5 268.254 152.88 268.254 144.699C268.254 136.519 261.623 129.899 253.429 129.899C245.235 129.899 238.604 136.519 238.604 144.699C238.604 152.88 245.235 159.5 253.429 159.5Z" fill="white"/>
<path d="M225.967 144.491V144.699C225.967 158.564 214.718 169.794 200.83 169.794C186.942 169.794 175.693 158.564 175.693 144.699C175.693 130.835 186.942 119.605 200.83 119.605C206.524 119.605 211.767 121.511 216.002 124.665V108.652C216 107.995 216.127 107.345 216.377 106.738C216.628 106.131 216.996 105.58 217.461 105.116C217.925 104.652 218.478 104.284 219.086 104.035C219.693 103.785 220.345 103.658 221.002 103.66C223.745 103.66 226.002 105.913 226.002 108.652V144.249C226.002 144.318 226.002 144.422 225.967 144.491Z" fill="#3A6986"/>
<path d="M200.827 159.5C209.015 159.5 215.653 152.874 215.653 144.699C215.653 136.525 209.015 129.899 200.827 129.899C192.64 129.899 186.002 136.525 186.002 144.699C186.002 152.874 192.64 159.5 200.827 159.5Z" fill="white"/>
<path d="M148.713 169.725C162.596 169.725 173.851 158.49 173.851 144.63C173.851 130.771 162.596 119.535 148.713 119.535C134.831 119.535 123.576 130.771 123.576 144.63C123.576 158.49 134.831 169.725 148.713 169.725Z" fill="#9C5789"/>
<path d="M148.472 159.535C156.659 159.535 163.297 152.908 163.297 144.734C163.297 136.56 156.659 129.934 148.472 129.934C140.284 129.934 133.646 136.56 133.646 144.734C133.646 152.908 140.284 159.535 148.472 159.535Z" fill="white"/>
</g>
<defs>
<filter id="filter0_f_492_13166" x="158.278" y="371.879" width="137.444" height="5.13139" filterUnits="userSpaceOnUse" color-interpolation-filters="sRGB">
<feFlood flood-opacity="0" result="BackgroundImageFix"/>
<feBlend mode="normal" in="SourceGraphic" in2="BackgroundImageFix" result="shape"/>
<feGaussianBlur stdDeviation="0.386859" result="effect1_foregroundBlur_492_13166"/>
</filter>
<filter id="filter1_d_492_13166" x="0.358482" y="357.943" width="453.283" height="18.3414" filterUnits="userSpaceOnUse" color-interpolation-filters="sRGB">
<feFlood flood-opacity="0" result="BackgroundImageFix"/>
<feColorMatrix in="SourceAlpha" type="matrix" values="0 0 0 0 0 0 0 0 0 0 0 0 0 0 0 0 0 0 127 0" result="hardAlpha"/>
<feOffset/>
<feGaussianBlur stdDeviation="0.960644"/>
<feColorMatrix type="matrix" values="0 0 0 0 0 0 0 0 0 0 0 0 0 0 0 0 0 0 0.05 0"/>
<feBlend mode="normal" in2="BackgroundImageFix" result="effect1_dropShadow_492_13166"/>
<feBlend mode="normal" in="SourceGraphic" in2="effect1_dropShadow_492_13166" result="shape"/>
</filter>
<filter id="filter2_d_492_13166" x="3.28346" y="357.16" width="447.514" height="16.8117" filterUnits="userSpaceOnUse" color-interpolation-filters="sRGB">
<feFlood flood-opacity="0" result="BackgroundImageFix"/>
<feColorMatrix in="SourceAlpha" type="matrix" values="0 0 0 0 0 0 0 0 0 0 0 0 0 0 0 0 0 0 127 0" result="hardAlpha"/>
<feOffset/>
<feGaussianBlur stdDeviation="1.35202"/>
<feColorMatrix type="matrix" values="0 0 0 0 0 0 0 0 0 0 0 0 0 0 0 0 0 0 0.05 0"/>
<feBlend mode="normal" in2="BackgroundImageFix" result="effect1_dropShadow_492_13166"/>
<feBlend mode="normal" in="SourceGraphic" in2="effect1_dropShadow_492_13166" result="shape"/>
</filter>
<filter id="filter3_d_492_13166" x="157.956" y="372.5" width="138.089" height="3.0035" filterUnits="userSpaceOnUse" color-interpolation-filters="sRGB">
<feFlood flood-opacity="0" result="BackgroundImageFix"/>
<feColorMatrix in="SourceAlpha" type="matrix" values="0 0 0 0 0 0 0 0 0 0 0 0 0 0 0 0 0 0 127 0" result="hardAlpha"/>
<feOffset dy="-0.0711588"/>
<feColorMatrix type="matrix" values="0 0 0 0 1 0 0 0 0 1 0 0 0 0 1 0 0 0 0.061849 0"/>
<feBlend mode="normal" in2="BackgroundImageFix" result="effect1_dropShadow_492_13166"/>
<feBlend mode="normal" in="SourceGraphic" in2="effect1_dropShadow_492_13166" result="shape"/>
</filter>
<filter id="filter4_d_492_13166" x="225.586" y="6.73072" width="2.09553" height="2.09629" filterUnits="userSpaceOnUse" color-interpolation-filters="sRGB">
<feFlood flood-opacity="0" result="BackgroundImageFix"/>
<feColorMatrix in="SourceAlpha" type="matrix" values="0 0 0 0 0 0 0 0 0 0 0 0 0 0 0 0 0 0 127 0" result="hardAlpha"/>
<feOffset/>
<feGaussianBlur stdDeviation="0.0711588"/>
<feColorMatrix type="matrix" values="0 0 0 0 0 0 0 0 0 0 0 0 0 0 0 0 0 0 0.4 0"/>
<feBlend mode="normal" in2="BackgroundImageFix" result="effect1_dropShadow_492_13166"/>
<feBlend mode="normal" in="SourceGraphic" in2="effect1_dropShadow_492_13166" result="shape"/>
</filter>
<filter id="filter5_f_492_13166" x="227.104" y="6.92116" width="0.749027" height="0.749187" filterUnits="userSpaceOnUse" color-interpolation-filters="sRGB">
<feFlood flood-opacity="0" result="BackgroundImageFix"/>
<feBlend mode="normal" in="SourceGraphic" in2="BackgroundImageFix" result="shape"/>
<feGaussianBlur stdDeviation="0.0967149" result="effect1_foregroundBlur_492_13166"/>
</filter>
<filter id="filter6_f_492_13166" x="227.104" y="6.92116" width="0.749027" height="0.749187" filterUnits="userSpaceOnUse" color-interpolation-filters="sRGB">
<feFlood flood-opacity="0" result="BackgroundImageFix"/>
<feBlend mode="normal" in="SourceGraphic" in2="BackgroundImageFix" result="shape"/>
<feGaussianBlur stdDeviation="0.0967149" result="effect1_foregroundBlur_492_13166"/>
</filter>
<filter id="filter7_f_492_13166" x="225.819" y="6.84327" width="1.14675" height="0.904979" filterUnits="userSpaceOnUse" color-interpolation-filters="sRGB">
<feFlood flood-opacity="0" result="BackgroundImageFix"/>
<feBlend mode="normal" in="SourceGraphic" in2="BackgroundImageFix" result="shape"/>
<feGaussianBlur stdDeviation="0.0967149" result="effect1_foregroundBlur_492_13166"/>
</filter>
<filter id="filter8_f_492_13166" x="226.138" y="7.16261" width="1.23217" height="1.23252" filterUnits="userSpaceOnUse" color-interpolation-filters="sRGB">
<feFlood flood-opacity="0" result="BackgroundImageFix"/>
<feBlend mode="normal" in="SourceGraphic" in2="BackgroundImageFix" result="shape"/>
<feGaussianBlur stdDeviation="0.0967149" result="effect1_foregroundBlur_492_13166"/>
</filter>
<filter id="filter9_f_492_13166" x="226.346" y="7.68515" width="0.628299" height="0.628414" filterUnits="userSpaceOnUse" color-interpolation-filters="sRGB">
<feFlood flood-opacity="0" result="BackgroundImageFix"/>
<feBlend mode="normal" in="SourceGraphic" in2="BackgroundImageFix" result="shape"/>
<feGaussianBlur stdDeviation="0.0967149" result="effect1_foregroundBlur_492_13166"/>
</filter>
<linearGradient id="paint0_linear_492_13166" x1="157.956" y1="312.214" x2="157.956" y2="375.178" gradientUnits="userSpaceOnUse">
<stop stop-color="#242328"/>
<stop offset="0.190646" stop-color="#2C2B30"/>
<stop offset="0.387487" stop-color="#4B4A4F"/>
<stop offset="0.421228" stop-color="#555459"/>
<stop offset="0.583651" stop-color="#727076"/>
<stop offset="0.665405" stop-color="#434248"/>
<stop offset="0.744936" stop-color="#26252A"/>
<stop offset="0.80397" stop-color="#313035"/>
<stop offset="0.980985" stop-color="#3F3F43"/>
<stop offset="0.988443" stop-color="#343338"/>
<stop offset="1" stop-color="#D2D3D5"/>
<stop offset="1" stop-color="#2B2A2F"/>
</linearGradient>
<radialGradient id="paint1_radial_492_13166" cx="0" cy="0" r="1" gradientUnits="userSpaceOnUse" gradientTransform="translate(169.107 369.642) rotate(16.497) scale(19.4938 14.9454)">
<stop stop-color="#E9EAEC"/>
<stop offset="1" stop-color="white" stop-opacity="0.01"/>
</radialGradient>
<radialGradient id="paint2_radial_492_13166" cx="0" cy="0" r="1" gradientUnits="userSpaceOnUse" gradientTransform="translate(285.84 369.218) rotate(63.1728) scale(17.2746 43.6276)">
<stop stop-color="#E9EAEC"/>
<stop offset="1" stop-color="white" stop-opacity="0.01"/>
</radialGradient>
<radialGradient id="paint3_radial_492_13166" cx="0" cy="0" r="1" gradientUnits="userSpaceOnUse" gradientTransform="translate(179.197 372.937) rotate(98.4583) scale(14.1183 80.1237)">
<stop stop-color="white" stop-opacity="0.818784"/>
<stop offset="1" stop-color="white" stop-opacity="0.01"/>
</radialGradient>
<radialGradient id="paint4_radial_492_13166" cx="0" cy="0" r="1" gradientUnits="userSpaceOnUse" gradientTransform="translate(275.213 372.954) rotate(81.7268) scale(13.4788 72.368)">
<stop stop-color="white" stop-opacity="0.82"/>
<stop offset="1" stop-color="white" stop-opacity="0.01"/>
</radialGradient>
<radialGradient id="paint5_radial_492_13166" cx="0" cy="0" r="1" gradientUnits="userSpaceOnUse" gradientTransform="translate(296.044 374.006) rotate(147.332) scale(32.1475 22.7898)">
<stop stop-color="white"/>
<stop offset="1" stop-color="white" stop-opacity="0.01"/>
</radialGradient>
<radialGradient id="paint6_radial_492_13166" cx="0" cy="0" r="1" gradientUnits="userSpaceOnUse" gradientTransform="translate(157.956 372.772) rotate(117.563) scale(23.2707 74.8147)">
<stop stop-color="white"/>
<stop offset="1" stop-color="white" stop-opacity="0.01"/>
</radialGradient>
<radialGradient id="paint7_radial_492_13166" cx="0" cy="0" r="1" gradientUnits="userSpaceOnUse" gradientTransform="translate(225.793 365.403) rotate(90) scale(10.8213 117.493)">
<stop stop-color="#343338"/>
<stop offset="1" stop-color="#2D2C31" stop-opacity="0.01"/>
</radialGradient>
<radialGradient id="paint8_radial_492_13166" cx="0" cy="0" r="1" gradientUnits="userSpaceOnUse" gradientTransform="translate(228.777 312.214) rotate(90) scale(35.1939 113.698)">
<stop stop-color="#27262B"/>
<stop offset="1" stop-color="#2D2C31" stop-opacity="0.01"/>
</radialGradient>
<radialGradient id="paint9_radial_492_13166" cx="0" cy="0" r="1" gradientUnits="userSpaceOnUse" gradientTransform="translate(173.632 349.592) rotate(103.121) scale(13.8251 113.451)">
<stop stop-color="#27262B"/>
<stop offset="1" stop-color="#2D2C31" stop-opacity="0.01"/>
</radialGradient>
<radialGradient id="paint10_radial_492_13166" cx="0" cy="0" r="1" gradientUnits="userSpaceOnUse" gradientTransform="translate(279.118 349.648) rotate(77.0458) scale(12.5646 99.0638)">
<stop stop-color="#27262B"/>
<stop offset="1" stop-color="#2D2C31" stop-opacity="0.01"/>
</radialGradient>
<linearGradient id="paint11_linear_492_13166" x1="158.823" y1="376.066" x2="295.166" y2="376.066" gradientUnits="userSpaceOnUse">
<stop stop-color="#838385"/>
<stop offset="0.0182458" stop-color="#C1C0C6"/>
<stop offset="0.0375704" stop-color="#27262B"/>
<stop offset="0.504551" stop-color="#2B2A2F"/>
<stop offset="0.965588" stop-color="#2F2E33"/>
<stop offset="0.985363" stop-color="#C1C0C6"/>
<stop offset="1" stop-color="#838385"/>
</linearGradient>
<linearGradient id="paint12_linear_492_13166" x1="0" y1="312.295" x2="454" y2="312.295" gradientUnits="userSpaceOnUse">
<stop stop-color="#29282D"/>
<stop offset="1" stop-color="#404044"/>
</linearGradient>
<radialGradient id="paint13_radial_492_13166" cx="0" cy="0" r="1" gradientUnits="userSpaceOnUse" gradientTransform="translate(224.34 10.9893) rotate(116.896) scale(3.22395 3.22315)">
<stop stop-color="white"/>
<stop offset="0.0281362" stop-color="#CECECE" stop-opacity="0.767503"/>
<stop offset="1" stop-color="#252525"/>
</radialGradient>
<radialGradient id="paint14_radial_492_13166" cx="0" cy="0" r="1" gradientUnits="userSpaceOnUse" gradientTransform="translate(226.634 6.87304) rotate(90) scale(1.81165 1.8109)">
<stop stop-color="#2F2E32"/>
<stop offset="1" stop-color="#101518"/>
</radialGradient>
<radialGradient id="paint15_radial_492_13166" cx="0" cy="0" r="1" gradientUnits="userSpaceOnUse" gradientTransform="translate(226.551 7.53467) rotate(74.0063) scale(0.667866 0.667629)">
<stop stop-color="#101722"/>
<stop offset="1" stop-color="#525669"/>
</radialGradient>
<clipPath id="clip0_492_13166">
<rect width="454" height="376.237" fill="white"/>
</clipPath>
<clipPath id="clip1_492_13166">
<rect width="416.872" height="234.588" fill="white" transform="translate(18.5638 19.6304)"/>
</clipPath>
<clipPath id="clip2_492_13166">
<rect width="208.319" height="66.2033" fill="white" transform="translate(123.576 103.66)"/>
</clipPath>
</defs>
</svg>
